<svg width="47" height="47" viewBox="0 0 47 47" fill="none" xmlns="http://www.w3.org/2000/svg">
<path d="M1.02801 23.6701C1.02801 11.1291 11.1945 0.962579 23.7356 0.962579C36.2766 0.962579 46.4431 11.1291 46.4431 23.6701C46.4431 36.2112 36.2766 46.3777 23.7356 46.3777C11.1945 46.3777 1.02801 36.2112 1.02801 23.6701Z" stroke="#F4F4F4" stroke-width="0.868517"/>
<path d="M20.3012 24.2141H22.109V31.7332C22.109 31.8817 22.2281 32.0019 22.375 32.0019H25.4402C25.5872 32.0019 25.7062 31.8817 25.7062 31.7332V24.2495H27.7845C27.9196 24.2495 28.0333 24.1471 28.0488 24.0115L28.3644 21.2433C28.3731 21.1672 28.3492 21.0909 28.2988 21.0337C28.2483 20.9765 28.176 20.9438 28.1002 20.9438H25.7064V19.2086C25.7064 18.6855 25.9851 18.4202 26.535 18.4202C26.6134 18.4202 28.1002 18.4202 28.1002 18.4202C28.2472 18.4202 28.3662 18.2999 28.3662 18.1515V15.6106C28.3662 15.4621 28.2472 15.3418 28.1002 15.3418H25.9432C25.9279 15.3411 25.8942 15.3398 25.8444 15.3398C25.4701 15.3398 24.1692 15.4141 23.1415 16.3692C22.0029 17.4276 22.1612 18.6949 22.199 18.9146V20.9437H20.3012C20.1542 20.9437 20.0352 21.064 20.0352 21.2125V23.9453C20.0352 24.0937 20.1542 24.2141 20.3012 24.2141Z" fill="white"/>
</svg>
