<svg width="47" height="47" viewBox="0 0 47 47" fill="none" xmlns="http://www.w3.org/2000/svg">
<path d="M0.824883 23.6701C0.824883 11.1291 10.9914 0.962579 23.5324 0.962579C36.0735 0.962579 46.24 11.1291 46.24 23.6701C46.24 36.2112 36.0735 46.3777 23.5324 46.3777C10.9914 46.3777 0.824883 36.2112 0.824883 23.6701Z" stroke="#F4F4F4" stroke-width="0.868517"/>
<path d="M30.2642 22.3267C30.3261 21.9355 30.3647 21.5065 30.3744 21.0255C30.3706 18.9629 29.3833 18.2331 29.1933 17.8909C29.4731 16.3282 29.147 15.6173 28.9953 15.374C28.4359 15.1754 27.0489 15.8865 26.2911 16.3871C25.0555 16.0254 22.4444 16.0607 21.4652 16.4807C19.6585 15.187 18.703 15.3843 18.703 15.3843C18.703 15.3843 18.0852 16.492 18.5397 18.1126C17.9452 18.8701 17.5022 19.4057 17.5022 20.8263C17.5022 21.1665 17.5233 21.488 17.5592 21.7974C18.0711 24.489 20.2039 25.6503 22.299 25.8505C21.9837 26.0901 21.6052 26.5434 21.5529 27.0687C21.1567 27.3248 20.3599 27.4095 19.7403 27.2147C18.872 26.9404 18.5397 25.2211 17.2395 25.4663C16.9582 25.519 17.0141 25.7045 17.2577 25.8627C17.6538 26.1196 18.0269 26.439 18.3144 27.1224C18.5353 27.6471 18.9998 28.584 20.4684 28.584C21.0515 28.584 21.4598 28.5151 21.4598 28.5151C21.4598 28.5151 21.4709 29.8521 21.4709 30.3736C21.4709 30.9737 20.661 31.1422 20.661 31.4301C20.661 31.5446 20.9291 31.5555 21.1445 31.5555C21.5703 31.5555 22.456 31.2008 22.456 30.5771C22.456 30.0815 22.4639 28.4159 22.4639 28.1242C22.4639 27.4868 22.8055 27.2839 22.8055 27.2839C22.8055 27.2839 22.8473 30.6861 22.7233 31.1422C22.5779 31.6786 22.3145 31.6024 22.3145 31.8411C22.3145 32.1974 23.3794 31.9282 23.7326 31.1485C24.0058 30.5394 23.8835 27.203 23.8835 27.203L24.1683 27.1968C24.1683 27.1968 24.1716 28.7249 24.1618 29.4229C24.1515 30.146 24.0769 31.06 24.5064 31.4914C24.7883 31.7752 25.6518 32.273 25.6518 31.8181C25.6518 31.5544 25.0471 31.3365 25.0471 30.6221V27.3313C25.4145 27.3313 25.4904 28.413 25.4904 28.413L25.6228 30.4227C25.6228 30.4227 25.5349 31.156 26.415 31.4621C26.7258 31.5709 27.3904 31.6005 27.4216 31.4178C27.4528 31.2347 26.6212 30.9639 26.6133 30.3963C26.6091 30.0506 26.6288 29.8483 26.6288 28.3446C26.6288 26.8418 26.427 26.2859 25.7234 25.8428C27.7635 25.6335 29.8825 24.7224 30.2642 22.3267Z" fill="white"/>
</svg>
