<svg width="33" height="40" viewBox="0 0 33 40" fill="none" xmlns="http://www.w3.org/2000/svg">
<path d="M0.387046 38.5598C0.387046 39.0108 0.77346 39.3755 1.24976 39.3755C4.29621 39.3766 28.4142 39.3755 28.727 39.3755C29.2033 39.3755 29.5897 39.0107 29.5897 38.5598C29.5897 38.1089 29.2033 37.7442 28.727 37.7442H20.1383V30.2071C20.1383 29.1126 19.3333 28.1982 18.2554 27.9487V26.7645C18.937 26.8542 19.6273 26.8951 20.3259 26.8951C24.5792 26.8951 28.5822 25.329 31.5844 22.4905C31.8778 22.2131 32.1537 21.9194 32.4127 21.6257C32.6976 21.3077 32.6801 20.8263 32.3609 20.5245L27.383 15.8181L28.9876 7.18837C29.8245 7.13933 30.601 6.80504 31.1961 6.24212C32.5718 4.94153 32.5597 2.84095 31.1961 1.56821C29.8509 0.279505 27.6294 0.266728 26.2526 1.56821C25.6572 2.13116 25.3036 2.86502 25.2517 3.65631L16.1241 5.17367L11.1376 0.458831C10.8184 0.165172 10.3181 0.140799 9.97282 0.417916C9.66222 0.662538 9.36021 0.91557 9.06682 1.19272C2.85504 7.06567 2.85504 16.6174 9.06682 22.4904C9.87767 23.257 10.7666 23.9341 11.7155 24.5051V27.9504C10.6407 28.2017 9.83807 29.1146 9.83807 30.2074V37.7445H1.24943C0.772788 37.7445 0.386719 38.1095 0.386719 38.5601L0.387046 38.5598ZM27.4785 2.71847C28.1383 2.07833 29.2764 2.0528 29.9805 2.71847C30.6717 3.37166 30.672 4.43023 29.9805 5.08402C29.2832 5.74302 28.0175 5.72938 27.3664 4.96186C26.7814 4.31969 26.8404 3.32178 27.4784 2.7185L27.4785 2.71847ZM25.5458 5.26335C25.7097 5.62229 25.9512 5.95687 26.2532 6.24213C26.5552 6.52767 26.9088 6.75604 27.2885 6.911L25.8908 14.4072L17.6086 6.57671L25.5458 5.26335ZM10.2841 21.3321C4.75396 16.0952 4.75396 7.57957 10.2841 2.3506C10.3531 2.28531 10.4222 2.22003 10.4912 2.15474C10.4912 2.15474 16.3147 7.6934 30.5678 21.1362C30.4987 21.2015 30.4383 21.2668 30.3695 21.3321C27.6865 23.8688 24.1231 25.2637 20.3273 25.2637C19.6285 25.2637 18.9382 25.215 18.2568 25.1169V18.8769C18.2568 17.1721 16.79 15.7856 14.9869 15.7856C13.1838 15.7856 11.717 17.1724 11.717 18.8769V22.5149C11.2164 22.1559 10.7333 21.7564 10.2846 21.3321L10.2841 21.3321ZM16.5302 18.8769V27.8736H13.4416V18.8769C13.4416 18.0693 14.1405 17.417 14.986 17.417C15.8402 17.417 16.5301 18.0693 16.5301 18.8769H16.5302ZM11.5642 30.2069C11.5642 29.8207 11.8966 29.5067 12.3051 29.5067H17.6719C18.0805 29.5067 18.4128 29.8207 18.4128 30.2069V37.7439H11.5643L11.5642 30.2069Z" fill="url(#paint0_linear_387_39)"/>
<path d="M14.168 19.2159C14.168 19.6361 14.5338 19.9819 14.9872 19.9819C15.4402 19.9819 15.8063 19.6361 15.8063 19.2159C15.8063 18.7876 15.4405 18.4414 14.9872 18.4414C14.5338 18.4414 14.168 18.7873 14.168 19.2159Z" fill="url(#paint1_linear_387_39)"/>
<defs>
<linearGradient id="paint0_linear_387_39" x1="32.7256" y1="39.7692" x2="-6.13935" y2="39.7692" gradientUnits="userSpaceOnUse">
<stop stop-color="#E53935"/>
<stop offset="1" stop-color="#F8801C"/>
</linearGradient>
<linearGradient id="paint1_linear_387_39" x1="15.812" y1="19.9974" x2="13.8362" y2="19.9974" gradientUnits="userSpaceOnUse">
<stop stop-color="#E53935"/>
<stop offset="1" stop-color="#F8801C"/>
</linearGradient>
</defs>
</svg>
