<svg width="33" height="28" viewBox="0 0 33 28" fill="none" xmlns="http://www.w3.org/2000/svg">
<path d="M24.4494 11.5477L24.3549 11.5294C23.0575 11.2799 21.5094 10.8237 21.5094 10.0479C21.5094 8.70323 23.2864 8.63343 23.6425 8.63343C24.3006 8.63131 24.9222 8.88551 25.3252 9.32093C25.6008 9.61567 25.9856 9.82532 26.4192 9.91678C26.8527 10.0082 27.3105 9.9762 27.7199 9.82575L30.0966 8.9893C30.5975 8.8136 30.983 8.46476 31.1531 8.03296C31.3232 7.60115 31.2611 7.12877 30.9833 6.73814C30.0238 5.4085 28.5716 4.37791 26.8478 3.80263V2.46115C26.8478 2.04652 26.6509 1.64866 26.3006 1.35559C25.9502 1.06234 25.4752 0.897461 24.9799 0.897461H22.3124C21.8184 0.899159 21.3451 1.06467 20.9963 1.35771C20.6478 1.65076 20.4519 2.04755 20.4519 2.4611V3.73577C18.8818 4.18371 17.5205 5.03504 16.5621 6.16836C15.6036 7.30168 15.0967 8.6593 15.1137 10.0479C15.1137 11.6055 15.8696 15.3776 22.8249 16.7404L22.9304 16.7616C24.2277 17.0112 25.7758 17.4674 25.7758 18.2431C25.7758 19.5878 23.9988 19.6547 23.6427 19.6547H23.6425C22.9846 19.6566 22.3628 19.4026 21.96 18.9672C21.6855 18.6775 21.3047 18.4715 20.8766 18.3809C20.4485 18.29 19.9966 18.3197 19.5907 18.4653L17.2105 19.3018H17.2102C16.7093 19.4775 16.324 19.8263 16.1539 20.2581C15.9839 20.6899 16.0457 21.1623 16.3238 21.5529C17.2812 22.8817 18.7307 23.9123 20.4518 24.4884V26.119C20.4518 26.5336 20.6488 26.9314 20.9988 27.2247C21.3492 27.5177 21.8245 27.6826 22.3197 27.6826H24.9907C25.486 27.6826 25.9611 27.5177 26.3114 27.2247C26.6618 26.9314 26.8587 26.5335 26.8587 26.119V24.5493C28.426 24.099 29.784 23.2468 30.7399 22.1137C31.6956 20.9806 32.2003 19.6241 32.1825 18.2372C32.1825 16.3024 31.1794 12.8586 24.4492 11.5479L24.4494 11.5477ZM25.6994 23.2715C25.3062 23.3629 25.0342 23.6628 25.0345 24.0046V26.134C25.0345 26.1575 25.0117 26.1764 24.9835 26.1764H22.3125C22.2844 26.1764 22.2618 26.1575 22.2618 26.134V23.9558C22.2608 23.6243 22.0035 23.3313 21.6258 23.2318C20.0611 22.8214 18.7305 21.9446 17.8864 20.7678C17.8798 20.7574 17.8798 20.7449 17.8864 20.7342C17.8912 20.7188 17.9049 20.7064 17.9226 20.7009L20.3029 19.8645V19.8643C20.3331 19.8541 20.365 19.849 20.3975 19.8492C20.4499 19.8467 20.5009 19.8647 20.5356 19.8978C21.2819 20.705 22.4342 21.176 23.6535 21.1725C25.9793 21.1725 27.6036 19.9557 27.6036 18.2399C27.6036 16.7949 26.2117 15.8245 23.3445 15.277H23.2791C18.0317 14.2367 16.9308 11.8607 16.9308 10.0477C16.9211 8.89269 17.3761 7.76871 18.2225 6.85649C19.0689 5.94426 20.2575 5.29728 21.5967 5.01932C21.9904 4.93062 22.2652 4.63333 22.2689 4.29211V2.46678V2.46699C22.2689 2.44344 22.2917 2.42434 22.3199 2.42434H24.9909C25.019 2.42434 25.0418 2.44344 25.0418 2.46699V4.33474C25.0408 4.66747 25.2986 4.962 25.6776 5.06174C27.2439 5.4717 28.5757 6.34852 29.4206 7.52573C29.4272 7.53634 29.4272 7.54886 29.4206 7.55926C29.4158 7.57475 29.4023 7.58726 29.3843 7.59278L26.9932 8.42331C26.9151 8.45472 26.8218 8.44135 26.7605 8.38978C26.0142 7.5824 24.8621 7.11153 23.6426 7.11512C21.3168 7.11512 19.6925 8.33182 19.6925 10.0506C19.6925 11.4957 21.0843 12.4661 23.9551 13.0135H24.0205C29.2609 14.0356 30.3618 16.4114 30.3618 18.2246C30.3765 19.3823 29.9243 20.5104 29.0782 21.4263C28.232 22.3421 27.0416 22.992 25.6994 23.2715L25.6994 23.2715Z" fill="url(#paint0_linear_387_44)"/>
<path d="M16.9681 24.674C15.3873 25.252 12.7564 25.5866 9.94016 25.5866C4.58371 25.5866 1.9233 24.452 1.81817 24.0261V21.7811C3.74062 22.5993 6.90564 22.9978 9.94016 22.9978C11.2162 23.0006 12.4912 22.9305 13.7559 22.7879L14.0649 22.7514C14.31 22.7281 14.5331 22.622 14.6832 22.458C14.833 22.294 14.8969 22.086 14.8599 21.8817C14.8228 21.6775 14.688 21.4946 14.4867 21.3754C14.2855 21.2559 14.0348 21.2103 13.7922 21.2487L13.505 21.2822H13.5052C12.3222 21.4148 11.13 21.48 9.93664 21.4768C4.58019 21.4768 1.91978 20.3422 1.81466 19.9163V17.5435C3.73711 18.3617 6.90212 18.7602 9.93664 18.7602C12.7603 18.7602 15.4277 18.4317 17.2481 17.8475V17.8478C17.7178 17.6999 17.9553 17.2612 17.7787 16.8681C17.602 16.4751 17.078 16.2762 16.6086 16.4239C15.0022 16.9228 12.553 17.215 9.93631 17.215C4.57986 17.215 1.91945 16.0833 1.81756 15.6666V13.3394C3.74001 14.1576 6.90503 14.5561 9.93955 14.5561C11.2169 14.5589 12.493 14.4886 13.7588 14.3463C14.2607 14.2892 14.612 13.9023 14.5439 13.4822C14.4757 13.0623 14.0136 12.7681 13.5117 12.8252C12.3277 12.9581 11.1342 13.023 9.93955 13.0198C4.5831 13.0198 1.92269 11.8852 1.81756 11.4593V9.14742C3.74001 9.96562 6.90503 10.3641 9.93955 10.3641C10.8298 10.3641 11.7129 10.3306 12.5596 10.2667C13.0615 10.229 13.4316 9.85782 13.3865 9.43788C13.3413 9.01773 12.898 8.7079 12.3961 8.7457C11.6039 8.8066 10.7752 8.83695 9.93955 8.83695C4.5831 8.83695 1.92269 7.70232 1.81756 7.27644V4.95542C3.74001 5.77362 6.90503 6.17212 9.93955 6.17212C11.174 6.17488 12.4075 6.10974 13.6318 5.97733C14.1335 5.92195 14.4866 5.5366 14.4201 5.11643C14.354 4.6965 13.8936 4.4009 13.3917 4.45631C12.2469 4.58023 11.0939 4.64113 9.93948 4.63901C9.27076 4.63901 8.64215 4.62076 8.05707 4.59042C3.96526 4.36825 1.91912 3.45579 1.821 3.0694C1.91935 2.64946 4.59037 1.52079 9.93585 1.52079C13.0467 1.52079 15.9863 1.95876 17.4219 2.63417C17.8594 2.84 18.4133 2.70992 18.6591 2.34367C18.905 1.97742 18.7496 1.51379 18.3121 1.30797C16.5714 0.489768 13.4426 3.50034e-08 9.93574 3.50034e-08C5.14964 -0.000212147 0 0.964217 0 3.08153V24.0412C0 26.1705 5.15288 27.1227 9.93898 27.1227C13.0424 27.1227 15.8696 26.7395 17.6976 26.0702H17.6978C18.1414 25.8943 18.3376 25.4551 18.1412 25.0786C17.945 24.702 17.4266 24.5241 16.9708 24.6769L16.9681 24.674Z" fill="url(#paint1_linear_387_44)"/>
<defs>
<linearGradient id="paint0_linear_387_44" x1="32.242" y1="27.9516" x2="11.6567" y2="27.9516" gradientUnits="userSpaceOnUse">
<stop stop-color="#E53935"/>
<stop offset="1" stop-color="#F8801C"/>
</linearGradient>
<linearGradient id="paint1_linear_387_44" x1="18.8408" y1="27.3951" x2="-3.80212" y2="27.3951" gradientUnits="userSpaceOnUse">
<stop stop-color="#E53935"/>
<stop offset="1" stop-color="#F8801C"/>
</linearGradient>
</defs>
</svg>
