<svg width="43" height="25" viewBox="0 0 43 25" fill="none" xmlns="http://www.w3.org/2000/svg">
<path d="M21.5008 0.00878906C19.8253 0.00878906 18.4508 1.36076 18.4508 3.00879C18.4508 3.02352 18.4549 3.03792 18.4552 3.05265C10.2668 4.13745 3.96161 10.7399 3.96161 18.7607V19.5076H39.0392V18.7607C39.0392 10.7404 32.735 4.13779 24.5474 3.05265C24.5477 3.03792 24.5518 3.02352 24.5518 3.00879C24.5518 1.36076 23.1759 0.00878906 21.5004 0.00878906H21.5008ZM21.5008 1.50879C22.3188 1.50879 22.9669 2.12285 23.0169 2.91373C22.7368 2.90067 22.4546 2.89331 22.171 2.89331H20.8305C20.5469 2.89331 20.2664 2.90067 19.9863 2.91373C20.036 2.12288 20.6828 1.50879 21.5007 1.50879H21.5008ZM20.8305 4.39325H22.1711C30.4162 4.39325 36.9226 10.4445 37.3574 18.0132H5.64528C6.07964 10.4446 12.586 4.39325 20.8317 4.39325H20.8305ZM28.8323 7.06213C28.4756 7.08122 28.1805 7.34137 28.1219 7.68791C28.063 8.03446 28.2571 8.37463 28.5883 8.50655C28.5883 8.50655 29.6187 8.94316 30.9411 10.2011C32.2636 11.4594 33.8237 13.5045 34.7224 16.7007C34.7721 16.8969 34.9004 17.065 35.0777 17.1671C35.2551 17.2689 35.4668 17.2963 35.6649 17.2424C35.863 17.1888 36.0309 17.0586 36.1299 16.8818C36.2293 16.7047 36.2518 16.4958 36.1922 16.3022C35.2173 12.8341 33.4935 10.5383 32.0046 9.12169C30.5156 7.70509 29.2017 7.13389 29.2017 7.13389C29.1098 7.09103 29.01 7.06659 28.9083 7.06224C28.8831 7.0609 28.8575 7.0609 28.8324 7.06224L28.8323 7.06213ZM0.911771 20.2518C0.345343 20.2528 -0.0232712 20.8378 0.229609 21.336C0.656129 22.1754 1.27942 22.9953 2.03747 23.6341C2.79555 24.2733 3.71053 24.7518 4.72696 24.7518H37.5145C38.5312 24.7518 39.565 24.3091 40.5097 23.69C41.4539 23.0706 42.2995 22.2647 42.7716 21.3359C43.0245 20.8377 42.6572 20.2527 42.0912 20.2518L0.911771 20.2518ZM2.30126 21.7518H40.5422C40.2875 21.9872 39.9642 22.2414 39.665 22.4376C38.894 22.9431 38.0229 23.2518 37.5143 23.2518H4.7268C4.21858 23.2518 3.60414 22.979 3.02786 22.4931C2.79332 22.2956 2.50841 21.9999 2.30111 21.7518H2.30126Z" fill="url(#paint0_linear_387_33)"/>
<defs>
<linearGradient id="paint0_linear_387_33" x1="43.0007" y1="25.0002" x2="-8.49927" y2="25.0002" gradientUnits="userSpaceOnUse">
<stop stop-color="#E53935"/>
<stop offset="1" stop-color="#F8801C"/>
</linearGradient>
</defs>
</svg>
