<svg width="36" height="36" viewBox="0 0 36 36" fill="none" xmlns="http://www.w3.org/2000/svg">
<path d="M33.1989 0.599609H2.79844C2.16201 0.599609 1.55153 0.852466 1.10157 1.30274C0.651301 1.75274 0.398438 2.3632 0.398438 2.99961V33.4001C0.398438 34.0365 0.651294 34.647 1.10157 35.0969C1.55157 35.5472 2.16203 35.8001 2.79844 35.8001H33.1989C33.8353 35.8001 34.4458 35.5472 34.8958 35.0969C35.346 34.6469 35.5989 34.0365 35.5989 33.4001V2.99961C35.5989 2.36318 35.346 1.75271 34.8958 1.30274C34.4458 0.852473 33.8353 0.599609 33.1989 0.599609ZM33.9987 33.4001C33.9987 33.6122 33.9146 33.8155 33.7646 33.9658C33.6143 34.1158 33.411 34.1999 33.1989 34.1999H2.79843C2.35673 34.1999 1.99861 33.8418 1.99861 33.4001V2.99962C1.99861 2.55792 2.35674 2.1998 2.79843 2.1998H33.1989C33.411 2.1998 33.6143 2.28391 33.7646 2.43391C33.9146 2.58418 33.9987 2.78748 33.9987 2.99962V33.4001ZM28.3989 13.3998H22.7988V7.79975C22.7988 7.5876 22.7144 7.3843 22.5644 7.23403C22.4144 7.08403 22.2109 6.99992 21.9987 6.99992H13.9985H13.9987C13.5568 6.99992 13.1987 7.35805 13.1987 7.79974V13.3998H7.59857C7.15687 13.3998 6.79875 13.758 6.79875 14.1999V22.2002V22.1999C6.79875 22.412 6.88286 22.6156 7.03286 22.7656C7.18313 22.9156 7.38643 23 7.59857 23H13.1987V28.6001C13.1987 28.8122 13.283 29.0155 13.433 29.1658C13.583 29.3158 13.7866 29.3999 13.9988 29.3999H21.999H21.9987C22.2109 29.3999 22.4144 29.3158 22.5644 29.1658C22.7144 29.0155 22.7988 28.8122 22.7988 28.6001V23H28.3989C28.611 23 28.8143 22.9156 28.9646 22.7656C29.1146 22.6156 29.1987 22.412 29.1987 22.1999V14.1997V14.1999C29.1987 13.9878 29.1146 13.7842 28.9646 13.6342C28.8143 13.4842 28.611 13.3998 28.3989 13.3998L28.3989 13.3998ZM27.5988 21.4001H21.9987C21.557 21.4001 21.1989 21.7582 21.1989 22.1999V27.8H14.7987V22.1999C14.7987 21.9877 14.7146 21.7844 14.5646 21.6342C14.4143 21.4842 14.211 21.4001 13.9989 21.4001H8.3988V14.9999H13.9989C14.211 14.9999 14.4143 14.9158 14.5646 14.7658C14.7146 14.6155 14.7987 14.4122 14.7987 14.2001V8.59996H21.1986L21.1989 14.2001C21.1989 14.4122 21.283 14.6155 21.433 14.7658C21.5833 14.9158 21.7866 14.9999 21.9987 14.9999H27.5988V21.4001Z" fill="url(#paint0_linear_387_43)"/>
<defs>
<linearGradient id="paint0_linear_387_43" x1="35.7207" y1="36.1536" x2="-6.72968" y2="36.1536" gradientUnits="userSpaceOnUse">
<stop stop-color="#E53935"/>
<stop offset="1" stop-color="#F8801C"/>
</linearGradient>
</defs>
</svg>
