<svg width="48" height="47" viewBox="0 0 48 47" fill="none" xmlns="http://www.w3.org/2000/svg">
<path d="M1.23113 23.6701C1.23113 11.1291 11.3976 0.962579 23.9387 0.962579C36.4797 0.962579 46.6462 11.1291 46.6462 23.6701C46.6462 36.2112 36.4797 46.3777 23.9387 46.3777C11.3976 46.3777 1.23113 36.2112 1.23113 23.6701Z" stroke="#F4F4F4" stroke-width="0.868517"/>
<path d="M32.1333 22.1287C32.2074 22.1287 32.2675 22.1887 32.2675 22.2628V23.6708C32.2675 24.1978 32.2185 24.7131 32.1246 25.213C31.3984 29.0957 27.9778 32.0299 23.8777 32.0016C19.2772 31.9699 15.5953 28.2527 15.6055 23.6521C15.6156 19.0597 19.3417 15.3398 23.9365 15.3398C26.1876 15.3398 28.23 16.2329 29.7296 17.6835C29.7837 17.7359 29.7851 17.8222 29.7318 17.8754L27.7399 19.8674C27.6886 19.9187 27.6057 19.92 27.5532 19.87C26.612 18.9741 25.3386 18.4241 23.9365 18.4241C21.0411 18.4241 18.7095 20.7391 18.6899 23.6344C18.6701 26.5487 21.0268 28.9175 23.9365 28.9175C26.2973 28.9175 28.2941 27.3579 28.9525 25.213H24.0706C23.9965 25.213 23.9365 25.1529 23.9365 25.0789V22.2628C23.9365 22.1887 23.9965 22.1287 24.0706 22.1287H32.1333V22.1287Z" fill="white"/>
<path d="M32.1339 22.1299H31.1282C31.2022 22.1299 31.2623 22.1899 31.2623 22.264V23.672C31.2623 24.199 31.2133 24.7143 31.1194 25.2142C30.4266 28.9183 27.2814 31.7591 23.4336 31.988C23.5808 31.9967 23.729 32.0018 23.8783 32.0028C27.9783 32.0311 31.3989 29.0968 32.1252 25.2142C32.2191 24.7143 32.268 24.199 32.268 23.672V22.264C32.268 22.1899 32.208 22.1299 32.1339 22.1299Z" fill="#E3E3E3"/>
<path d="M19.1708 21.4736L16.6406 19.6455C18.0601 17.0781 20.7954 15.3398 23.9364 15.3398C26.1875 15.3398 28.2299 16.2329 29.7295 17.6835C29.7836 17.7359 29.785 17.8222 29.7318 17.8754L27.7398 19.8674C27.6886 19.9186 27.6057 19.9202 27.5533 19.8703C26.6121 18.9742 25.3386 18.4242 23.9364 18.4242C21.8233 18.4242 20.0019 19.6733 19.1708 21.4736Z" fill="white"/>
<path d="M18.4414 20.9455L19.1718 21.4733C19.9304 19.83 21.5142 18.6466 23.3916 18.4525C23.4057 18.4509 23.4193 18.4491 23.4337 18.4477C23.2685 18.432 23.101 18.4238 22.9317 18.4238C21.0228 18.4238 19.3592 19.4302 18.4414 20.9455Z" fill="#E3E3E3"/>
<path d="M28.7239 17.6835C28.7781 17.7359 28.7795 17.8222 28.7262 17.8755L27.1094 19.4923C27.2643 19.6101 27.4125 19.7361 27.5532 19.8701C27.6058 19.9201 27.6887 19.9187 27.7399 19.8674L29.7319 17.8755C29.7852 17.8222 29.7838 17.7359 29.7297 17.6835C28.2301 16.2329 26.1876 15.3398 23.9365 15.3398C23.7676 15.3398 23.6 15.3455 23.4336 15.3554C25.4851 15.4776 27.3368 16.3417 28.7239 17.6835Z" fill="#E3E3E3"/>
<path d="M30.0487 29.3328C28.5273 30.9746 26.3522 32.0021 23.9374 32.0021C20.6757 32.0021 17.8519 30.1277 16.4844 27.3971L19.0675 25.627C19.8426 27.5557 21.7311 28.9178 23.9374 28.9178C25.3219 28.9178 26.5812 28.3814 27.5185 27.505L30.0487 29.3328Z" fill="white"/>
<path d="M19.0664 25.627L18.3047 26.1489C19.1894 27.797 20.9291 28.9178 22.9305 28.9178C23.0998 28.9178 23.2671 28.9095 23.4322 28.8938C21.4455 28.7044 19.7817 27.407 19.0664 25.627Z" fill="#E3E3E3"/>
<path d="M23.9352 32.0017C26.35 32.0017 28.5251 30.9742 30.0465 29.3325L29.4268 28.8848C27.9983 30.6626 25.8553 31.842 23.4336 31.9866C23.5996 31.9965 23.7668 32.0017 23.9352 32.0017Z" fill="#E3E3E3"/>
<path d="M18.6898 23.6719C18.6898 24.3631 18.8235 25.0233 19.0666 25.6277L16.4835 27.3978C15.9216 26.2768 15.6055 25.0112 15.6055 23.6719C15.6055 22.2118 15.9809 20.8396 16.6407 19.6465L19.1709 21.4746C18.8621 22.1428 18.6898 22.8874 18.6898 23.6719Z" fill="white"/>
<path d="M18.3045 26.1501L19.0662 25.6281C18.8231 25.0237 18.6894 24.3635 18.6894 23.6723C18.6894 22.8878 18.8617 22.1432 19.1704 21.475L18.44 20.9473C17.9657 21.7304 17.6904 22.6494 17.6837 23.6359C17.6775 24.5456 17.903 25.4021 18.3045 26.1501Z" fill="#E3E3E3"/>
</svg>
